@startuml
!pragma layout smetana
!theme cyborg-outline

title: DataSources connected with ServeQuery

class STORE {
  .. Fields ..
  String name
  .. Imported ..
  String ownerFullName
}

class REVIEW {
  String title
  String message
  Number storeId
}

class OWNER {
  .. Fields ..
  String firstName
  String lastName
  .. Computed ..
  String fullName
}

class ACCOUNT {
  .. Fields ..
   String firstName
   String lastName
   String storeId
   Object address: {
   -- Number streetNumber
   -- String streetName
   -- String city
   -- String country
   },
   Object bills: [{
   -- String title
   -- Number amount
   -- Date issueDate
   -- items: [{
   ---- Enum['high', 'medium', 'low'] importance
   ---- String title
   ---- Number amount
   -- }],
  }],
}

class DVD {
  .. Fields ..
  String title
  .. Computed ..
  Int numberOfRentals
  .. Renamed ..
  Int rentalPriceInDollar
  .. Actions ..
  IncreaseTheRentalPrice()
}

class RENTALS {
  .. Computed ..
  Int numberOfDays
  .. Segments ..
  MoreThan50Days()
}

class CARD {
  .. Fields ..
  BigInt cardNumber
  Enum cardType
  Boolean isActive
}

class CUSTOMER {
  .. Fields ..
  String name
  String firstName
}

class POST {
  .. Fields ..
  String title
  String body
}

class COMMENT {
  .. Fields ..
  String name
  String email
  String body
}

OWNER "1" -- "*" POST : has
POST "1" -- "*" COMMENT : has
STORE "*" -- "1" OWNER : has
STORE "1" -- "*" DVD : has
STORE "0-1" -- "*" REVIEW : has
STORE "1" -- "*" ACCOUNT : has
DVD "*" -- "*" RENTALS : has
CUSTOMER "1" -- "*" CARD : has
CUSTOMER "1" -- "*" RENTALS : has
@enduml
